<?xml version="1.0" standalone="no"?>
<!DOCTYPE svg PUBLIC "-//W3C//DTD SVG 20010904//EN"
 "http://www.w3.org/TR/2001/REC-SVG-20010904/DTD/svg10.dtd">
<svg version="1.0" xmlns="http://www.w3.org/2000/svg"
 width="250.000000pt" height="163.000000pt" viewBox="0 0 250.000000 163.000000"
 preserveAspectRatio="xMidYMid meet">

<g transform="translate(0.000000,163.000000) scale(0.100000,-0.100000)"
fill="#00000" stroke="none">
<path d="M379 1330 c-23 -13 -42 -65 -35 -92 3 -13 207 -224 453 -470 419
-418 451 -448 483 -448 32 0 65 30 487 453 413 413 453 455 453 485 0 46 -38
82 -87 82 -36 0 -53 -15 -445 -407 l-408 -408 -408 408 c-382 381 -410 407
-442 407 -19 0 -42 -5 -51 -10z"/>
</g>
</svg>
