<svg xmlns="http://www.w3.org/2000/svg" xmlns:xlink="http://www.w3.org/1999/xlink" version="1.1" width="1000" height="1000" viewBox="0 0 1000 1000" xml:space="preserve">
<desc>Created with Fabric.js 3.5.0</desc>
<defs>
</defs>
<rect x="0" y="0" width="100%" height="100%" fill="#486e00"/>
<g transform="matrix(6.969 0 0 7.5581 499.9966 540.1514)" id="491964">
<g style="" vector-effect="non-scaling-stroke">
		<g transform="matrix(1 0 0 1 1 1)" id="Layer_1">
<path style="stroke: none; stroke-width: 1; stroke-dasharray: none; stroke-linecap: butt; stroke-dashoffset: 0; stroke-linejoin: miter; stroke-miterlimit: 4; is-custom-font: none; font-file-url: none; fill: rgb(254,254,254); fill-rule: nonzero; opacity: 1;" transform=" translate(-89.5, -88)" d="M 97 175 C 64.666672 175 32.833336 175 1.000004 175 C 1.000003 117.000008 1.000003 59.000011 1.000001 1.000012 C 59.999989 1.000008 118.999977 1.000008 177.999969 1.000004 C 177.999985 58.999989 177.999985 116.999977 178 174.999985 C 151.166672 175 124.333336 175 97 175 M 103.499794 144.456238 C 110.494774 144.453339 117.493851 144.600327 124.483696 144.409439 C 133.141479 144.173004 138.658798 139.459274 139.841034 130.995819 C 141.659103 117.980598 143.425629 104.943947 144.607269 91.861595 C 145.035538 87.120087 146.440567 85.216797 151.150314 85.905663 C 155.371262 86.523041 156.745239 84.351555 156.617401 80.378471 C 156.44072 74.888016 156.553574 69.387512 156.578583 63.891476 C 156.622513 54.237473 156.57814 54.537647 147.656006 54.799953 C 145.997971 54.848701 144.333282 54.587532 142.670074 54.557758 C 133.698669 54.397148 133.620529 54.40683 133.611557 45.283184 C 133.596848 30.342888 121.556404 17.917194 106.38385 18.133419 C 94.22821 18.306652 82.067932 18.128399 69.909927 18.170448 C 61.554173 18.199345 54.878418 21.757227 49.481316 28.027676 C 44.229904 34.128864 42.904301 41.373287 43.432556 49.047031 C 43.739025 53.498913 42.08271 54.953926 37.714436 54.619518 C 33.751892 54.316174 29.722668 54.96051 25.745207 54.754749 C 21.435274 54.531792 20.265789 56.616329 20.346346 60.458313 C 20.475494 66.61779 20.361494 72.78215 20.370518 78.944412 C 20.380497 85.760521 20.397274 85.895927 27.39658 85.851059 C 30.422918 85.831665 31.812378 86.563942 32.171196 89.902664 C 33.557606 102.802856 35.327396 115.661263 36.848354 128.547745 C 38.175674 139.79364 43.299606 144.472092 54.53334 144.467468 C 70.522148 144.460892 86.510963 144.459045 103.499794 144.456238 M 128.436462 23.706562 C 128.706757 23.989759 128.977066 24.272959 129.24736 24.556158 C 129.364655 24.444107 129.481964 24.332056 129.599258 24.220001 C 129.32869 23.936855 129.058121 23.653709 128.436462 23.706562 z" stroke-linecap="round"/>
</g>
		<g transform="matrix(1 0 0 1 -0.016 -5.681)" id="Layer_1">
<path style="stroke: none; stroke-width: 1; stroke-dasharray: none; stroke-linecap: butt; stroke-dashoffset: 0; stroke-linejoin: miter; stroke-miterlimit: 4; is-custom-font: none; font-file-url: none; fill: rgb(132,132,132); fill-rule: nonzero; opacity: 1;" transform=" translate(-88.484, -81.3191)" d="M 102.999786 144.455719 C 86.510963 144.459045 70.522148 144.460892 54.53334 144.467468 C 43.299606 144.472092 38.175674 139.79364 36.848354 128.547745 C 35.327396 115.661263 33.557606 102.802856 32.171196 89.902664 C 31.812378 86.563942 30.422918 85.831665 27.39658 85.851059 C 20.397274 85.895927 20.380497 85.760521 20.370518 78.944412 C 20.361494 72.78215 20.475494 66.61779 20.346346 60.458313 C 20.265789 56.616329 21.435274 54.531792 25.745207 54.754749 C 29.722668 54.96051 33.751892 54.316174 37.714436 54.619518 C 42.08271 54.953926 43.739025 53.498913 43.432556 49.047031 C 42.904301 41.373287 44.229904 34.128864 49.481316 28.027676 C 54.878418 21.757227 61.554173 18.199345 69.909927 18.170448 C 82.067932 18.128399 94.22821 18.306652 106.38385 18.133419 C 121.556404 17.917194 133.596848 30.342888 133.611557 45.283184 C 133.620529 54.40683 133.698669 54.397148 142.670074 54.557758 C 144.333282 54.587532 145.997971 54.848701 147.656006 54.799953 C 156.57814 54.537647 156.622513 54.237473 156.578583 63.891476 C 156.553574 69.387512 156.44072 74.888016 156.617401 80.378471 C 156.745239 84.351555 155.371262 86.523041 151.150314 85.905663 C 146.440567 85.216797 145.035538 87.120087 144.607269 91.861595 C 143.425629 104.943947 141.659103 117.980598 139.841034 130.995819 C 138.658798 139.459274 133.141479 144.173004 124.483696 144.409439 C 117.493851 144.600327 110.494774 144.453339 102.999786 144.455719 M 96.500061 61.647064 C 75.013252 61.6521 53.526005 61.601578 32.040524 61.773037 C 30.411783 61.786041 27.502039 63.239029 27.394659 64.255745 C 26.895399 68.982918 27.17362 73.792198 27.17362 78.738976 C 28.870134 78.888039 30.035948 79.221252 31.119827 79.046448 C 36.292423 78.212204 38.069096 80.535553 38.592522 85.542595 C 40.079796 99.769684 42.08876 113.94149 43.791878 128.147095 C 44.570305 134.639938 46.969418 137.18631 53.282715 137.201904 C 76.768173 137.259888 100.253929 137.256775 123.73941 137.203217 C 129.901703 137.189163 132.339417 134.85553 133.133438 128.617355 C 135.044571 113.602409 136.986633 98.591003 138.786926 83.562683 C 139.111176 80.855873 139.942627 79.30368 142.921616 79.036659 C 149.842728 78.416275 149.834167 78.32106 149.841858 71.463036 C 149.843552 69.963959 149.712372 68.450455 149.872833 66.968559 C 150.318665 62.851547 148.633453 61.506771 144.47023 61.562859 C 128.815979 61.773746 113.157181 61.646843 96.500061 61.647064 M 86.500252 25.011362 C 80.667496 25.044712 74.821442 24.838074 69.004692 25.160349 C 56.080059 25.876431 45.99826 40.823498 50.317261 52.88884 C 50.673088 53.882858 52.867821 54.770092 54.212566 54.776497 C 77.045197 54.88525 99.878616 54.813324 122.711563 54.882339 C 125.604156 54.891079 127.168716 54.108498 126.910614 50.949516 C 126.721069 48.629642 126.886818 46.271538 126.582123 43.971821 C 124.949577 31.649895 117.476227 25.119276 104.999954 25.030905 C 99.166924 24.98959 93.333412 25.015781 86.500252 25.011362 z" stroke-linecap="round"/>
</g>
		<g transform="matrix(1 0 0 1 40.6056 -62.9526)" id="Layer_1">
<path style="stroke: none; stroke-width: 1; stroke-dasharray: none; stroke-linecap: butt; stroke-dashoffset: 0; stroke-linejoin: miter; stroke-miterlimit: 4; is-custom-font: none; font-file-url: none; fill: rgb(241,241,241); fill-rule: nonzero; opacity: 1;" transform=" translate(-129.1056, -24.0474)" d="M 128.612 23.538563 C 129.058121 23.653709 129.32869 23.936855 129.599258 24.220003 C 129.481964 24.332056 129.364655 24.444107 129.24736 24.556156 C 128.977066 24.272959 128.706757 23.989759 128.612 23.538563 z" stroke-linecap="round"/>
</g>
		<g transform="matrix(1 0 0 1 0.0193 12.4028)" id="Layer_1">
<path style="stroke: none; stroke-width: 1; stroke-dasharray: none; stroke-linecap: butt; stroke-dashoffset: 0; stroke-linejoin: miter; stroke-miterlimit: 4; is-custom-font: none; font-file-url: none; fill: rgb(251,251,251); fill-rule: nonzero; opacity: 1;" transform=" translate(-88.5194, -99.4028)" d="M 97.000076 61.646774 C 113.157181 61.646843 128.815979 61.773746 144.47023 61.562859 C 148.633453 61.506771 150.318665 62.851547 149.872833 66.968559 C 149.712372 68.450455 149.843552 69.963959 149.841858 71.463036 C 149.834167 78.32106 149.842728 78.416275 142.921616 79.036659 C 139.942627 79.30368 139.111176 80.855873 138.786926 83.562683 C 136.986633 98.591003 135.044571 113.602409 133.133438 128.617355 C 132.339417 134.85553 129.901703 137.189163 123.73941 137.203217 C 100.253929 137.256775 76.768173 137.259888 53.282715 137.201904 C 46.969418 137.18631 44.570305 134.639938 43.791878 128.147095 C 42.08876 113.94149 40.079796 99.769684 38.592522 85.542595 C 38.069096 80.535553 36.292423 78.212204 31.119827 79.046448 C 30.035948 79.221252 28.870134 78.888039 27.17362 78.738976 C 27.17362 73.792198 26.895399 68.982918 27.394659 64.255745 C 27.502039 63.239029 30.411783 61.786041 32.040524 61.773037 C 53.526005 61.601578 75.013252 61.6521 97.000076 61.646774 M 67.594025 95.53183 C 67.588829 92.370865 67.71067 89.202965 67.538528 86.051125 C 67.398941 83.495567 66.842232 80.412178 63.498848 81.188187 C 62.085205 81.516296 60.410469 84.435822 60.34594 86.231094 C 60.029427 95.036835 60.194321 103.86071 60.235794 112.677956 C 60.247784 115.226456 60.360798 118.462212 63.814388 117.783234 C 65.358383 117.479691 67.230064 114.42733 67.414932 112.476685 C 67.915009 107.200027 67.590668 101.845245 67.594025 95.53183 M 116.778946 112.116447 C 116.774773 103.306259 116.959579 94.488251 116.595718 85.692947 C 116.528618 84.071243 114.240913 82.541405 112.978172 80.96917 C 111.963181 82.522842 110.119865 84.05056 110.070244 85.634476 C 109.789291 94.602028 109.782349 103.588013 110.068474 112.555389 C 110.127472 114.404343 111.504189 117.438431 112.828743 117.781273 C 116.292076 118.677673 116.564705 115.58744 116.778946 112.116447 M 85.01445 106.429916 C 85.024124 108.920731 84.608238 111.517746 85.194016 113.864777 C 85.580482 115.413239 87.407539 116.602158 88.589569 117.952065 C 89.705643 116.566917 91.745148 115.209976 91.78846 113.792061 C 92.077324 104.335289 92.095566 94.860329 91.781448 85.405243 C 91.731522 83.902306 89.563889 82.469711 88.375328 81.004585 C 87.25441 82.51075 85.251099 83.968826 85.165939 85.531441 C 84.805 92.154259 85.013832 98.808128 85.01445 106.429916 z" stroke-linecap="round"/>
</g>
		<g transform="matrix(1 0 0 1 -0.3795 -47.0705)" id="Layer_1">
<path style="stroke: none; stroke-width: 1; stroke-dasharray: none; stroke-linecap: butt; stroke-dashoffset: 0; stroke-linejoin: miter; stroke-miterlimit: 4; is-custom-font: none; font-file-url: none; fill: rgb(251,251,251); fill-rule: nonzero; opacity: 1;" transform=" translate(-88.1205, -39.9295)" d="M 87.000183 25.011368 C 93.333412 25.015781 99.166924 24.98959 104.999954 25.030905 C 117.476227 25.119276 124.949577 31.649895 126.582123 43.971821 C 126.886818 46.271538 126.721069 48.629642 126.910614 50.949516 C 127.168716 54.108498 125.604156 54.891079 122.711563 54.882339 C 99.878616 54.813324 77.045197 54.88525 54.212566 54.776497 C 52.867821 54.770092 50.673088 53.882858 50.317261 52.88884 C 45.99826 40.823498 56.080059 25.876431 69.004692 25.160349 C 74.821442 24.838074 80.667496 25.044712 87.000183 25.011368 z" stroke-linecap="round"/>
</g>
		<g transform="matrix(1 0 0 1 -24.5749 12.4706)" id="Layer_1">
<path style="stroke: none; stroke-width: 1; stroke-dasharray: none; stroke-linecap: butt; stroke-dashoffset: 0; stroke-linejoin: miter; stroke-miterlimit: 4; is-custom-font: none; font-file-url: none; fill: rgb(136,136,136); fill-rule: nonzero; opacity: 1;" transform=" translate(-63.9251, -99.4705)" d="M 67.593681 96.026642 C 67.590668 101.845245 67.915009 107.200027 67.414932 112.476685 C 67.230064 114.42733 65.358383 117.479691 63.814388 117.783234 C 60.360798 118.462212 60.247784 115.226456 60.235794 112.677956 C 60.194321 103.86071 60.029427 95.036835 60.34594 86.231094 C 60.410469 84.435822 62.085205 81.516296 63.498848 81.188187 C 66.842232 80.412178 67.398941 83.495567 67.538528 86.051125 C 67.71067 89.202965 67.588829 92.370865 67.593681 96.026642 z" stroke-linecap="round"/>
</g>
		<g transform="matrix(1 0 0 1 24.8393 12.454)" id="Layer_1">
<path style="stroke: none; stroke-width: 1; stroke-dasharray: none; stroke-linecap: butt; stroke-dashoffset: 0; stroke-linejoin: miter; stroke-miterlimit: 4; is-custom-font: none; font-file-url: none; fill: rgb(137,137,137); fill-rule: nonzero; opacity: 1;" transform=" translate(-113.3393, -99.454)" d="M 116.775703 112.566513 C 116.564705 115.58744 116.292076 118.677673 112.828743 117.781273 C 111.504189 117.438431 110.127472 114.404343 110.068474 112.555389 C 109.782349 103.588013 109.789291 94.602028 110.070244 85.634476 C 110.119865 84.05056 111.963181 82.522842 112.978165 80.969162 C 114.240913 82.541405 116.528618 84.071243 116.595718 85.692947 C 116.959579 94.488251 116.774773 103.306259 116.775703 112.566513 z" stroke-linecap="round"/>
</g>
		<g transform="matrix(1 0 0 1 -0.0544 12.4783)" id="Layer_1">
<path style="stroke: none; stroke-width: 1; stroke-dasharray: none; stroke-linecap: butt; stroke-dashoffset: 0; stroke-linejoin: miter; stroke-miterlimit: 4; is-custom-font: none; font-file-url: none; fill: rgb(130,130,130); fill-rule: nonzero; opacity: 1;" transform=" translate(-88.4457, -99.4783)" d="M 85.01445 105.940285 C 85.013832 98.808128 84.805 92.154259 85.165939 85.531441 C 85.251099 83.968826 87.25441 82.51075 88.375336 81.004593 C 89.563889 82.469711 91.731522 83.902306 91.781448 85.405243 C 92.095566 94.860329 92.077324 104.335289 91.78846 113.792061 C 91.745148 115.209976 89.705643 116.566917 88.589569 117.952065 C 87.407539 116.602158 85.580482 115.413239 85.194016 113.864777 C 84.608238 111.517746 85.024124 108.920731 85.01445 105.940285 z" stroke-linecap="round"/>
</g>
</g>
</g>
</svg>