<svg xmlns="http://www.w3.org/2000/svg" xmlns:xlink="http://www.w3.org/1999/xlink" version="1.1" width="1000" height="1000" viewBox="0 0 1000 1000" xml:space="preserve">
<desc>Created with Fabric.js 3.5.0</desc>
<defs>
</defs>
<rect x="0" y="0" width="100%" height="100%" fill="#ffffff"/>
<g transform="matrix(1.8984 0 0 1.8984 500.0096 500.0096)" id="880369">
<path style="stroke: none; stroke-width: 1; stroke-dasharray: none; stroke-linecap: butt; stroke-dashoffset: 0; stroke-linejoin: miter; stroke-miterlimit: 4; is-custom-font: none; font-file-url: none; fill: #767774; fill-rule: nonzero; opacity: 1;" vector-effect="non-scaling-stroke" transform=" translate(-244.2, -244.2)" d="M 0 203.25 c 0 112.1 91.2 203.2 203.2 203.2 c 51.6 0 98.8 -19.4 134.7 -51.2 l 129.5 129.5 c 2.4 2.4 5.5 3.6 8.7 3.6 s 6.3 -1.2 8.7 -3.6 c 4.8 -4.8 4.8 -12.5 0 -17.3 l -129.6 -129.5 c 31.8 -35.9 51.2 -83 51.2 -134.7 c 0 -112.1 -91.2 -203.2 -203.2 -203.2 S 0 91.15 0 203.25 z M 381.9 203.25 c 0 98.5 -80.2 178.7 -178.7 178.7 s -178.7 -80.2 -178.7 -178.7 s 80.2 -178.7 178.7 -178.7 S 381.9 104.65 381.9 203.25 z" stroke-linecap="round"/>
</g>
</svg>